<?xml version="1.0" encoding="utf-8"?>
<!-- Generated by IcoMoon.io -->
<!DOCTYPE svg PUBLIC "-//W3C//DTD SVG 1.1//EN" "http://www.w3.org/Graphics/SVG/1.1/DTD/svg11.dtd">
<svg version="1.1" xmlns="http://www.w3.org/2000/svg" xmlns:xlink="http://www.w3.org/1999/xlink" width="512" height="512" viewBox="0 0 512 512">
<g id="icomoon-ignore">
</g>
<path d="M484.944 143.568l-159.568 159.568h181.872c2.88-15.392 4.752-31.008 4.752-47.136 0-40.528-10.256-78.368-27.056-112.432zM336.88 243.84l131.248-131.184c-31.248-46.064-77.504-80.336-131.248-98.336v229.52zM267.968 336.88l131.28 131.312c46.128-31.184 80.432-77.504 98.432-131.312h-229.712zM303.088 187.904v-183.152c-15.312-2.848-30.96-4.752-47.088-4.752-40.88 0-79.008 10.464-113.28 27.536l160.368 160.368zM208.912 325.632v181.632c15.312 2.864 30.96 4.736 47.088 4.736 40.496 0 78.256-10.256 112.32-27.008l-159.408-159.36zM175.088 268.368l-131.088 131.072c31.184 46 77.408 80.256 131.088 98.256v-229.328zM4.752 208.912c-2.848 15.312-4.752 30.96-4.752 47.088 0 40.624 10.32 78.496 27.12 112.56l159.664-159.664h-182.032zM111.936 44.496c-45.68 31.184-79.712 77.168-97.616 130.592h228.224l-130.608-130.592z"></path>
</svg>
