<?xml version="1.0" encoding="utf-8"?>
<!-- Generated by IcoMoon.io -->
<!DOCTYPE svg PUBLIC "-//W3C//DTD SVG 1.1//EN" "http://www.w3.org/Graphics/SVG/1.1/DTD/svg11.dtd">
<svg version="1.1" xmlns="http://www.w3.org/2000/svg" xmlns:xlink="http://www.w3.org/1999/xlink" width="512" height="512" viewBox="0 0 512 512">
<g id="icomoon-ignore">
</g>
<path d="M384 64c-6 0-11.808 0.944-17.632 1.808-22.304-39.488-63.552-65.808-110.368-65.808-47.808 0-89.088 26.688-111.056 65.568-5.632-0.752-11.232-1.568-16.944-1.568-70.592 0-128 57.44-128 128s57.408 128 128 128h96v96h-64l96 96 96-96h-64v-96h96c70.624 0 128-57.44 128-128s-57.376-128-128-128zM384 256h-256c-35.28 0-64-28.688-64-64 0-35.056 31.088-62.192 64.064-63.12 0.128 15.056 2.752 29.936 8 43.936l59.936-22.496c-2.656-7.072-4-14.64-4-22.32 0-35.312 28.72-64 64-64 20.72 0 39.408 10.256 51.248 26.192-30.928 23.376-51.248 60.128-51.248 101.808h64c0-35.312 28.752-64 64-64s64 28.688 64 64-28.752 64-64 64z"></path>
</svg>
