<?xml version="1.0" encoding="utf-8"?>
<!-- Generated by IcoMoon.io -->
<!DOCTYPE svg PUBLIC "-//W3C//DTD SVG 1.1//EN" "http://www.w3.org/Graphics/SVG/1.1/DTD/svg11.dtd">
<svg version="1.1" xmlns="http://www.w3.org/2000/svg" xmlns:xlink="http://www.w3.org/1999/xlink" width="512" height="512" viewBox="0 0 512 512">
<g id="icomoon-ignore">
</g>
<path d="M256 0c-141.376 0-256 114.624-256 256s114.624 256 256 256 256-114.624 256-256-114.624-256-256-256zM256 64c41.44 0 79.568 13.504 110.944 35.872l-267.136 267.008c-22.368-31.376-35.808-69.504-35.808-110.88 0-105.872 86.128-192 192-192zM256 448c-41.44 0-79.568-13.504-110.944-35.872l267.136-267.008c22.368 31.376 35.808 69.504 35.808 110.88 0 105.872-86.128 192-192 192z"></path>
</svg>
