<?xml version="1.0" encoding="utf-8"?>
<!-- Generated by IcoMoon.io -->
<!DOCTYPE svg PUBLIC "-//W3C//DTD SVG 1.1//EN" "http://www.w3.org/Graphics/SVG/1.1/DTD/svg11.dtd">
<svg version="1.1" xmlns="http://www.w3.org/2000/svg" xmlns:xlink="http://www.w3.org/1999/xlink" width="512" height="512" viewBox="0 0 512 512">
<g id="icomoon-ignore">
</g>
<path d="M369.808 96c39.312 0 71.872 29.12 77.376 67.008l-191.12 219.488-191.248-219.488c5.504-37.888 38.064-67.008 77.376-67.008 32.256 0 61.68 34.624 61.68 34.624l52.128 55.376 52.128-55.376c0 0 29.44-34.624 61.68-34.624zM369.808 32c-47.744 0-88 25.248-113.808 61.504-25.808-36.256-66.064-61.504-113.808-61.504-78.448 0-142.192 63.872-142.192 142.256v11.744l256.128 294 255.872-294v-11.744c0-78.384-63.744-142.256-142.192-142.256v0z"></path>
</svg>
