<?xml version="1.0" encoding="utf-8"?>
<!-- Generated by IcoMoon.io -->
<!DOCTYPE svg PUBLIC "-//W3C//DTD SVG 1.1//EN" "http://www.w3.org/Graphics/SVG/1.1/DTD/svg11.dtd">
<svg version="1.1" xmlns="http://www.w3.org/2000/svg" xmlns:xlink="http://www.w3.org/1999/xlink" width="512" height="512" viewBox="0 0 512 512">
<g id="icomoon-ignore">
</g>
<path d="M352 0c-88.368 0-160 71.632-160 160 0 10 1.184 19.632 2.944 29.056l-194.944 194.944v128h192v-64h64v-64h64v-64l2.944-2.944c9.424 1.76 19.056 2.944 29.056 2.944 88.368 0 160-71.632 160-160s-71.632-160-160-160zM352 256c-5.008 0-10.496-0.624-17.376-1.872l-33.12-6.128-45.504 45.504v26.496h-64v64h-64v64h-64v-37.504l200-200-6.128-33.12c-1.28-6.88-1.872-12.384-1.872-17.376 0-52.944 43.056-96 96-96s96 43.056 96 96-43.056 96-96 96zM320 160c0-17.673 14.327-32 32-32s32 14.327 32 32c0 17.673-14.327 32-32 32s-32-14.327-32-32z"></path>
</svg>
