<?xml version="1.0" encoding="utf-8"?>
<!-- Generated by IcoMoon.io -->
<!DOCTYPE svg PUBLIC "-//W3C//DTD SVG 1.1//EN" "http://www.w3.org/Graphics/SVG/1.1/DTD/svg11.dtd">
<svg version="1.1" xmlns="http://www.w3.org/2000/svg" xmlns:xlink="http://www.w3.org/1999/xlink" width="512" height="512" viewBox="0 0 512 512">
<g id="icomoon-ignore">
</g>
<path d="M352 0c-88.368 0-160 71.632-160 160 0 10 1.184 19.632 2.944 29.056l-194.944 194.944v128h192v-64h64v-64h64v-64l2.944-2.944c9.424 1.76 19.056 2.944 29.056 2.944 88.368 0 160-71.632 160-160s-71.632-160-160-160zM352.128 192c-17.68 0-32-14.32-32-32s14.32-32 32-32 32 14.32 32 32-14.32 32-32 32z"></path>
</svg>
