<?xml version="1.0" encoding="utf-8"?>
<!-- Generated by IcoMoon.io -->
<!DOCTYPE svg PUBLIC "-//W3C//DTD SVG 1.1//EN" "http://www.w3.org/Graphics/SVG/1.1/DTD/svg11.dtd">
<svg version="1.1" xmlns="http://www.w3.org/2000/svg" xmlns:xlink="http://www.w3.org/1999/xlink" width="384" height="512" viewBox="0 0 384 512">
<g id="icomoon-ignore">
</g>
<path d="M224.064 0c-88.16 0-159.968 71.744-159.968 160v32h-64.096v224c0 52.88 43.12 96 95.968 96h192.032c53.008 0 96-43.12 96-96v-256c0-88.256-71.744-160-159.936-160zM128.096 160c0-52.992 43.088-96 95.968-96 52.944 0 95.936 43.008 95.936 96v32h-191.904v-32zM288 448h-192.032c-17.632 0-32-14.368-32-32v-160h256.032v160c0 17.632-14.256 32-32 32zM224 352c0 17.632-14.368 32-32 32-17.744 0-32-14.368-32-32 0-17.744 14.256-32 32-32 17.632 0 32 14.256 32 32z"></path>
</svg>
