<?xml version="1.0" encoding="utf-8"?>
<!-- Generated by IcoMoon.io -->
<!DOCTYPE svg PUBLIC "-//W3C//DTD SVG 1.1//EN" "http://www.w3.org/Graphics/SVG/1.1/DTD/svg11.dtd">
<svg version="1.1" xmlns="http://www.w3.org/2000/svg" xmlns:xlink="http://www.w3.org/1999/xlink" width="384" height="512" viewBox="0 0 384 512">
<g id="icomoon-ignore">
</g>
<path d="M224 0c-88.128 0-159.936 71.744-159.936 160v32h-64.064v224c0 52.944 43.056 96 96 96h192c52.944 0 96-43.056 96-96v-256c0-88.256-71.808-160-160-160zM191.936 384c-17.616 0-31.936-14.32-31.936-32s14.32-32 31.936-32c17.68 0 32 14.32 32 32s-14.304 32-32 32zM320 192h-191.936v-32c0-52.944 43.056-96 95.936-96 52.944 0 96 43.056 96 96v32z"></path>
</svg>
