<?xml version="1.0" encoding="utf-8"?>
<!-- Generated by IcoMoon.io -->
<!DOCTYPE svg PUBLIC "-//W3C//DTD SVG 1.1//EN" "http://www.w3.org/Graphics/SVG/1.1/DTD/svg11.dtd">
<svg version="1.1" xmlns="http://www.w3.org/2000/svg" xmlns:xlink="http://www.w3.org/1999/xlink" width="512" height="512" viewBox="0 0 512 512">
<g id="icomoon-ignore">
</g>
<path d="M322.128 0c-104.624 0-189.76 85.12-189.76 189.808 0 25.056 5.12 48.816 13.936 70.688l-146.304 146.32 105.12 105.184 146.368-146.432c21.872 8.88 45.632 14 70.624 14 104.688 0 189.872-85.12 189.872-189.728 0.016-104.72-85.168-189.84-189.856-189.84zM322.128 315.632c-69.312 0-125.808-56.496-125.808-125.792 0-69.376 56.496-125.872 125.808-125.872 69.44 0 125.936 56.496 125.936 125.872 0 69.28-56.496 125.792-125.936 125.792z"></path>
</svg>
