<?xml version="1.0" encoding="utf-8"?>
<!-- Generated by IcoMoon.io -->
<!DOCTYPE svg PUBLIC "-//W3C//DTD SVG 1.1//EN" "http://www.w3.org/Graphics/SVG/1.1/DTD/svg11.dtd">
<svg version="1.1" xmlns="http://www.w3.org/2000/svg" xmlns:xlink="http://www.w3.org/1999/xlink" width="512" height="512" viewBox="0 0 512 512">
<g id="icomoon-ignore">
</g>
<path d="M276.688 244.672l-45.264-45.264-64 64c-31.248 31.248-31.248 81.904 0 113.136 31.248 31.248 81.888 31.248 113.136 0l161.952-158.064c49.968-49.984 49.968-131.008 0-181.008-50-49.984-131.040-49.984-181.008 0l-177.936 174.080c-68.736 68.72-68.736 180.16 0 248.912 68.736 68.736 180.176 68.736 248.896 0l96-96-45.264-45.264-95.984 96c-43.728 43.712-114.656 43.712-158.4 0-43.728-43.712-43.728-114.656 0-158.384l177.936-174.096c24.992-24.992 65.52-24.992 90.496 0 25.008 25.008 25.008 65.552 0 90.512l-161.936 158.064c-6.256 6.256-16.368 6.256-22.624 0s-6.256-16.368 0-22.624l64-64z"></path>
</svg>
