<?xml version="1.0" encoding="utf-8"?>
<!-- Generated by IcoMoon.io -->
<!DOCTYPE svg PUBLIC "-//W3C//DTD SVG 1.1//EN" "http://www.w3.org/Graphics/SVG/1.1/DTD/svg11.dtd">
<svg version="1.1" xmlns="http://www.w3.org/2000/svg" xmlns:xlink="http://www.w3.org/1999/xlink" width="512" height="512" viewBox="0 0 512 512">
<g id="icomoon-ignore">
</g>
<path d="M512 128c0-70.656-57.376-128-128-128-47.744 0-88.992 26.528-111.008 65.376 0-0.032 0.064-0.064 0.064-0.096-5.872-0.56-11.568-1.776-17.568-1.776-106.064 0-192 85.936-192 192 0 40.432 12.624 77.872 33.936 108.752l-97.424 147.744 148.624-96.992c30.56 20.496 67.312 32.496 106.88 32.496 106.064 0 192-85.936 192-192 0-5.536-1.12-10.72-1.632-16.128 39.248-21.872 66.128-63.28 66.128-111.376zM255.504 383.504c-70.624 0-128-57.376-128-128 0-70.592 57.376-128 128-128 0.192 0 0.368 0.064 0.496 0.064 0-0.128 0.064-0.224 0.064-0.32 0 0.256-0.064 0.496-0.064 0.752 0 11.12 1.872 21.68 4.496 31.968l-50.752 50.784c-24.992 24.992-24.992 65.504 0 90.496s65.504 24.992 90.496 0l50.256-50.256c10.56 2.88 21.504 4.88 32.944 4.944-0.256 70.432-57.504 127.568-127.936 127.568zM384 192c-35.248 0-64-28.72-64-64s28.752-64 64-64 64 28.72 64 64-28.752 64-64 64z"></path>
</svg>
