<?xml version="1.0" encoding="utf-8"?>
<!-- Generated by IcoMoon.io -->
<!DOCTYPE svg PUBLIC "-//W3C//DTD SVG 1.1//EN" "http://www.w3.org/Graphics/SVG/1.1/DTD/svg11.dtd">
<svg version="1.1" xmlns="http://www.w3.org/2000/svg" xmlns:xlink="http://www.w3.org/1999/xlink" width="512" height="512" viewBox="0 0 512 512">
<g id="icomoon-ignore">
</g>
<path d="M512 512h-73.12c0-242-196.88-438.848-438.88-438.848v-73.152c282.256 0 512 229.68 512 512v0zM365.68 512h-73.12c0-161.312-131.312-292.56-292.56-292.56v-73.152c201.632 0 365.68 164.080 365.68 365.712v0zM219.44 512h-73.184c0-80.688-65.568-146.256-146.256-146.256v-73.184c120.992 0 219.44 98.448 219.44 219.44v0zM73.12 512c0-40.368-32.688-73.12-73.12-73.12v73.12h73.12z"></path>
</svg>
