<?xml version="1.0" encoding="utf-8"?>
<!-- Generated by IcoMoon.io -->
<!DOCTYPE svg PUBLIC "-//W3C//DTD SVG 1.1//EN" "http://www.w3.org/Graphics/SVG/1.1/DTD/svg11.dtd">
<svg version="1.1" xmlns="http://www.w3.org/2000/svg" xmlns:xlink="http://www.w3.org/1999/xlink" width="384" height="512" viewBox="0 0 384 512">
<g id="icomoon-ignore">
</g>
<path d="M224.064 0c-88.224 0-159.968 71.808-159.968 160h64c0-52.88 43.024-96 95.968-96s95.936 43.12 95.936 96v32h-320v224c0 52.992 43.056 96 95.968 96h192.032c52.944 0 96-43.008 96-96v-256c0-88.192-71.744-160-159.936-160zM288 448h-192.032c-17.632 0-32-14.32-32-32v-160h256.032v160c0 17.68-14.368 32-32 32zM224 352c0 17.744-14.32 32-32 32s-32-14.256-32-32c0-17.632 14.32-32 32-32s32 14.368 32 32z"></path>
</svg>
