<?xml version="1.0" encoding="utf-8"?>
<!-- Generated by IcoMoon.io -->
<!DOCTYPE svg PUBLIC "-//W3C//DTD SVG 1.1//EN" "http://www.w3.org/Graphics/SVG/1.1/DTD/svg11.dtd">
<svg version="1.1" xmlns="http://www.w3.org/2000/svg" xmlns:xlink="http://www.w3.org/1999/xlink" width="384" height="512" viewBox="0 0 384 512">
<g id="icomoon-ignore">
</g>
<path d="M224.064 0c-88.256 0-159.936 71.744-159.936 160h63.936c0-52.944 43.008-96 96-96 52.88 0 95.936 43.056 95.936 96v32h-320v224c0 52.944 43.12 96 96 96h192c52.88 0 96-43.056 96-96v-256c0-88.256-71.808-160-159.936-160zM192 384c-17.632 0-32-14.32-32-32s14.368-32 32-32c17.744 0 32 14.32 32 32s-14.256 32-32 32z"></path>
</svg>
